<?xml version="1.0" encoding="UTF-8" standalone="no"?>
<svg
   xmlns:dc="http://purl.org/dc/elements/1.1/"
   xmlns:cc="http://creativecommons.org/ns#"
   xmlns:rdf="http://www.w3.org/1999/02/22-rdf-syntax-ns#"
   xmlns:svg="http://www.w3.org/2000/svg"
   xmlns="http://www.w3.org/2000/svg"
   xmlns:sodipodi="http://sodipodi.sourceforge.net/DTD/sodipodi-0.dtd"
   xmlns:inkscape="http://www.inkscape.org/namespaces/inkscape"
   height="16"
   version="1.1"
   viewBox="0 0 16 16"
   width="16"
   id="svg12"
   sodipodi:docname="iconfinder_save_326688.svg"
   inkscape:version="1.0.2 (1.0.2+r75+1)">
  <metadata
     id="metadata16">
    <rdf:RDF>
      <cc:Work
         rdf:about="">
        <dc:format>image/svg+xml</dc:format>
        <dc:type
           rdf:resource="http://purl.org/dc/dcmitype/StillImage" />
        <dc:title></dc:title>
      </cc:Work>
    </rdf:RDF>
  </metadata>
  <sodipodi:namedview
     pagecolor="#202020"
     bordercolor="#ffffff"
     borderopacity="1"
     objecttolerance="10"
     gridtolerance="10"
     guidetolerance="10"
     inkscape:pageopacity="0"
     inkscape:pageshadow="2"
     inkscape:window-width="1326"
     inkscape:window-height="704"
     id="namedview14"
     showgrid="false"
     inkscape:pagecheckerboard="true"
     inkscape:showpageshadow="false"
     inkscape:zoom="22.671611"
     inkscape:cx="6.5456108"
     inkscape:cy="8.4249288"
     inkscape:window-x="0"
     inkscape:window-y="0"
     inkscape:window-maximized="1"
     inkscape:current-layer="svg12" />
  <desc
     id="desc4" />
  <defs
     id="defs6">
    <filter
       inkscape:collect="always"
       style="color-interpolation-filters:sRGB"
       id="filter850"
       x="-0.144"
       width="1.288"
       y="-0.144"
       height="1.288">
      <feGaussianBlur
         inkscape:collect="always"
         stdDeviation="1.08"
         id="feGaussianBlur852" />
    </filter>
  </defs>
  <g
     fill="none"
     fill-rule="evenodd"
     id="Page-1"
     stroke="none"
     stroke-width="1"
     transform="scale(0.88888889)"
     style="fill:#99ffed;fill-opacity:1"
     inkscape:label="save_load_logo"
     sodipodi:insensitive="true">
    <path
       d="M 14,0 H 2 C 0.9,0 0,0.9 0,2 v 14 c 0,1.1 0.9,2 2,2 h 14 c 1.1,0 2,-0.9 2,-2 V 4 Z M 9,16 c -1.7,0 -3,-1.3 -3,-3 0,-1.7 1.3,-3 3,-3 1.7,0 3,1.3 3,3 0,1.7 -1.3,3 -3,3 z M 12,6 H 2 V 2 h 10 z"
       id="Shape"
       style="fill:#99ffed;fill-opacity:1;filter:url(#filter850)"
       inkscape:label="blur_effect"
       transform="matrix(0.89988805,0,0,0.89602942,0.93539176,0.95011588)" />
    <path
       d="m 13.344555,1.092449 h -10.5 c -0.9625,0 -1.75,0.7875 -1.75,1.75 v 12.25 c 0,0.9625 0.7875,1.75 1.75,1.75 h 12.25 c 0.9625,0 1.75,-0.7875 1.75,-1.75 v -10.5 z m -4.375,14 c -1.4875,0 -2.625,-1.1375 -2.625,-2.625 0,-1.4875 1.1375,-2.625 2.625,-2.625 1.4875,0 2.625,1.1375 2.625,2.625 0,1.4875 -1.1375,2.625 -2.625,2.625 z m 2.625,-8.75 h -8.75 v -3.5 h 8.75 z"
       id="path848"
       style="fill:#99ffed;fill-opacity:1;stroke-width:0.875"
       inkscape:label="save_load" />
  </g>
</svg>
