<?xml version="1.0" encoding="UTF-8" standalone="no"?>
<svg
   xmlns:dc="http://purl.org/dc/elements/1.1/"
   xmlns:cc="http://creativecommons.org/ns#"
   xmlns:rdf="http://www.w3.org/1999/02/22-rdf-syntax-ns#"
   xmlns:svg="http://www.w3.org/2000/svg"
   xmlns="http://www.w3.org/2000/svg"
   xmlns:sodipodi="http://sodipodi.sourceforge.net/DTD/sodipodi-0.dtd"
   xmlns:inkscape="http://www.inkscape.org/namespaces/inkscape"
   height="64px"
   viewBox="-26.95222077 2.76256937 153.96327688 93.22443063"
   width="64px"
   version="1.1"
   id="svg12"
   sodipodi:docname="godot-logo.svg"
   inkscape:version="1.0.2 (1.0.2+r75+1)">
  <metadata
     id="metadata18">
    <rdf:RDF>
      <cc:Work
         rdf:about="">
        <dc:format>image/svg+xml</dc:format>
        <dc:type
           rdf:resource="http://purl.org/dc/dcmitype/StillImage" />
      </cc:Work>
    </rdf:RDF>
  </metadata>
  <defs
     id="defs16" />
  <sodipodi:namedview
     pagecolor="#ffffff"
     bordercolor="#666666"
     borderopacity="1"
     objecttolerance="10"
     gridtolerance="10"
     guidetolerance="10"
     inkscape:pageopacity="0"
     inkscape:pageshadow="2"
     inkscape:window-width="1326"
     inkscape:window-height="704"
     id="namedview14"
     showgrid="false"
     inkscape:zoom="9.76"
     inkscape:cx="25"
     inkscape:cy="25"
     inkscape:window-x="0"
     inkscape:window-y="0"
     inkscape:window-maximized="1"
     inkscape:current-layer="svg12" />
  <path
     d="m90.133 65.7s-.133-.818-.211-.81l-14.843 1.43a2     .412 2.412 0 0 0 -2.181 2.24l-.408 5.844-11.483.82-.78-5.297a2     .433 2.433 0 0 0 -2.394-2.067h-15.666c-1.19 0-2.22.889-2.393 2.067l-     .781 5.296-11.483-.819-.408-5.844a2.413 2.413 0 0 0 -2.181-2.24l-14     .851-1.43c-.077-.007-.133.812-.21.812l-.02 3.212 12.577 2.028.411 5.896a2.     431 2.431 0 0 0 2.241 2.245l15.815 1.128a2.431 2.431 0 0 0 2.568-2.06l.     803-5.45h11.488l.804 5.45a2.432 2.432 0 0 0 2.565 2.06l15.817-1.128a2.     432 2.432 0 0 0 2.24-2.245l.412-5.896 12.572-2.037z"
     fill="#99ffedff"
     stroke-width=".32"
     id="path2" />
  <path
     d="m40.764 4.2a2.574 2.574 0 0 0      -.666.064c-4.332.963-8.688 2.318-12.83 4.402a2.773 2.773 0 0 0      -1.525 2.55c.074 2.886.326 5.694.644 8.529-1.077.645-2.154      1.232-3.342 2.185-.845.65-1.788 1.473-2.71 2.236-2.15-1.349-4.32-2.692-6.62-3.85a2.773 2.773 0 0 0      -3.279.59c-3.126 3.366-6.098 7.048-8.553 11.224a2.773 2.773      0 0 0 .034 2.863c1.623 2.625 3.351 5.08 5.171 7.459v29.805c0      8.223 5.472 14.496 13.3 18.238 7.826 3.742 18.184 5.452 29.575      5.492h.075c11.39-.04 21.749-1.75 29.574-5.492s13.295-10.016      13.295-18.238l.004-29.031c1.848-2.712 3.382-5.334 5.173-8.23.54     -.875.553-1.976.034-2.862-2.454-4.177-5.429-7.86-8.555-11.225a2.773      2.773 0 0 0 -3.277-.59c-2.299 1.157-4.47 2.502-6.62 3.852-.922-.764-1.862-1.588-2.71-2.239-.004 0-.007      0-.01-.01-1.186-.95-2.259-1.537-3.332-2.18.317-2.833.57-5.642.644-8.529a2.773 2.773      0 0 0 -1.525-2.548c-4.143-2.085-8.498-3.44-12.833-4.403a2.773 2.773 0 0 0      -2.985 1.29c-1.4 2.353-2.601 4.855-3.763 7.325-1.035-.094-2.086-.238-3.088     -.25h-.127c-1.004.012-2.056.156-3.092.25-1.115-2.372-2.277-4.764-3.615-7.035a2.773      2.773 0 0 0 -2.467-1.646z"
     fill="#99ffedff"
     id="path4"
     style="fill:#99ffed;fill-opacity:1" />
  <path
     d="m 40.7,6.938 c -4.178,0.929 -8.31,2.222 -12.185,4.172 0.089,3.421 0.31,6.7 0.758,10.029 -1.505,0.964 -3.086,1.791 -4.491,2.92 -1.428,1.098 -2.887,2.15 -4.18,3.434 a 80.027,80.027 0 0 0 -8.134,-4.731 c -3.036,3.267 -5.874,6.794 -8.193,10.74 1.744,2.822 3.566,5.468 5.532,7.978 H 9.862 V 65.7 c 0.045,0 0.089,0 0.133,0.01 l 14.848,1.432 a 1.599,1.599 0 0 1 1.441,1.48 l 0.458,6.555 12.952,0.924 0.893,-6.05 a 1.599,1.599 0 0 1 1.581,-1.365 h 15.665 c 0.793,0 1.466,0.581 1.582,1.365 l 0.892,6.05 12.953,-0.924 0.458,-6.555 a 1.6,1.6 0 0 1 1.441,-1.48 L 90.001,65.71 c 0.044,0 0.088,-0.01 0.132,-0.01 v -1.932 h 0.006 V 41.483 h 0.055 c 1.967,-2.511 3.787,-5.157 5.533,-7.979 -2.318,-3.946 -5.159,-7.473 -8.195,-10.74 a 80.158,80.158 0 0 0 -8.134,4.732 C 78.106,26.211 76.65,25.16 75.22,24.061 73.815,22.933 72.231,22.105 70.73,21.141 71.177,17.811 71.398,14.534 71.487,11.112 67.612,9.162 63.48,7.869 59.3,6.941 c -1.669,2.804 -3.195,5.841 -4.524,8.81 -1.576,-0.263 -3.16,-0.36 -4.745,-0.38 H 49.97 c -1.588,0.02 -3.17,0.117 -4.747,0.38 C 43.895,12.782 42.37,9.745 40.698,6.941 Z M 9.838,68.904 c 0.006,1.435 0.024,3.007 0.024,3.32 0,14.101 17.888,20.878 40.112,20.956 h 0.055 c 22.224,-0.078 40.106,-6.855 40.106,-20.956 0,-0.319 0.02,-1.884 0.026,-3.32 l -13.346,1.287 -0.46,6.59 a 1.6,1.6 0 0 1 -1.482,1.483 l -15.816,1.128 h -0.115 a 1.599,1.599 0 0 1 -1.58,-1.366 l -0.907,-6.15 H 43.55 l -0.907,6.15 a 1.598,1.598 0 0 1 -1.696,1.362 L 25.131,78.26 a 1.599,1.599 0 0 1 -1.48,-1.483 l -0.46,-6.59 z"
     fill="#252424"
     id="path6" />
  <path
     d="m37.9 51.3a8.948 8.948 0 0 1 -17.895 0c0-4.94 4.007-8.944      8.947-8.944 4.942 0 8.948 4.003 8.948 8.944m12.1 9.8c-1.59 0-2.88-1.172-2.88-2.618v-8.237c0-1.444      1.29-2.618 2.88-2.618s2.883 1.174 2.883 2.618v8.237c0 1.446-1.292 2.618-2.883      2.618m12.101-9.8a8.947 8.947 0 0 0 8.949 8.949 8.947 8.947 0 0 0 8.946-8.949c0-4.94-4.007     -8.944-8.946-8.944-4.943 0-8.949 4.003-8.949 8.944"
     fill="#99ffedff"
     stroke-width=".32"
     id="path8"
     style="fill:#99ffed;fill-opacity:1" />
  <path
     d="m29.807 45.9a5.938 5.938 0 1 0 0 11.877 5.94 5.94 0 0 0 0-11.877zm40.383 0a5.938      5.938 0 0 0 -5.936 5.94 5.936 5.936 0 0 0 5.936 5.937 5.939 5.939 0 0 0 0-11.877z"
     fill="#99ffedff"
     id="path10"
     style="fill:#99ffed;fill-opacity:1" />
</svg>
