<?xml version="1.0" encoding="UTF-8" standalone="no"?>
<svg
   xmlns:dc="http://purl.org/dc/elements/1.1/"
   xmlns:cc="http://creativecommons.org/ns#"
   xmlns:rdf="http://www.w3.org/1999/02/22-rdf-syntax-ns#"
   xmlns:svg="http://www.w3.org/2000/svg"
   xmlns="http://www.w3.org/2000/svg"
   xmlns:sodipodi="http://sodipodi.sourceforge.net/DTD/sodipodi-0.dtd"
   xmlns:inkscape="http://www.inkscape.org/namespaces/inkscape"
   width="16"
   height="16"
   viewBox="0 0 4.2333332 4.2333335"
   version="1.1"
   id="svg8"
   inkscape:version="1.0.2 (1.0.2+r75+1)"
   sodipodi:docname="destructible.svg"
   inkscape:export-filename="/home/obrymec/Documents/templates/nodes/base/basics_features/destructible.png"
   inkscape:export-xdpi="93"
   inkscape:export-ydpi="93">
  <defs
     id="defs2">
    <filter
       inkscape:collect="always"
       style="color-interpolation-filters:sRGB"
       id="filter2300"
       x="-0.12000001"
       width="1.24"
       y="-0.11999999"
       height="1.24">
      <feGaussianBlur
         inkscape:collect="always"
         stdDeviation="0.18520834"
         id="feGaussianBlur2302" />
    </filter>
  </defs>
  <sodipodi:namedview
     id="base"
     pagecolor="#212121"
     bordercolor="#ffffff"
     borderopacity="1"
     inkscape:pageopacity="0"
     inkscape:pageshadow="2"
     inkscape:zoom="21.271838"
     inkscape:cx="5.276692"
     inkscape:cy="7.9606371"
     inkscape:document-units="px"
     inkscape:current-layer="layer1"
     inkscape:document-rotation="0"
     showgrid="false"
     units="px"
     inkscape:pagecheckerboard="true"
     inkscape:showpageshadow="false"
     inkscape:window-width="1326"
     inkscape:window-height="704"
     inkscape:window-x="0"
     inkscape:window-y="0"
     inkscape:window-maximized="1" />
  <metadata
     id="metadata5">
    <rdf:RDF>
      <cc:Work
         rdf:about="">
        <dc:format>image/svg+xml</dc:format>
        <dc:type
           rdf:resource="http://purl.org/dc/dcmitype/StillImage" />
        <dc:title />
      </cc:Work>
    </rdf:RDF>
  </metadata>
  <g
     inkscape:label="destructible_module_logo"
     inkscape:groupmode="layer"
     id="layer1"
     sodipodi:insensitive="true">
    <path
       style="fill:#99ffed;fill-opacity:1;stroke-width:0.00881711"
       d="m 2.1430697,3.9684158 c -0.048997,-0.035817 -0.050721,-0.047718 -0.050707,-0.3498701 1.66e-5,-0.3090516 0.0024,-0.3236674 0.058523,-0.3580561 0.040334,-0.024715 0.080683,-0.015656 0.1153151,0.025838 0.034773,0.041688 0.037176,0.067213 0.034074,0.3630954 -0.00235,0.2240403 -0.00401,0.2489829 -0.01833,0.2773958 -0.029103,0.057708 -0.091327,0.076331 -0.1388693,0.041576 z M 1.781636,3.9161471 C 1.745357,3.8965501 1.721927,3.8560941 1.721927,3.8130456 c 0,-0.02009 0.025502,-0.1509175 0.056657,-0.2907323 0.063788,-0.2861866 0.071451,-0.3038424 0.1364903,-0.3142995 0.061687,-0.00994 0.1128535,0.042673 0.1128535,0.1159847 0,0.038436 -0.100737,0.5000911 -0.1178654,0.5401525 -0.022492,0.05262 -0.082398,0.07687 -0.1284235,0.051995 z m 0.7399539,-0.00509 C 2.5074519,3.9004091 2.4904209,3.8817101 2.4838439,3.8695191 2.4772339,3.8573121 2.4457679,3.7300424 2.4139049,3.586678 2.3582539,3.336239 2.3564159,3.324519 2.3670979,3.2877179 c 0.026712,-0.092104 0.1348137,-0.1110088 0.1784244,-0.031189 0.007,0.012755 0.038988,0.1415295 0.071155,0.2861639 0.056908,0.2558939 0.058171,0.2640394 0.046905,0.3022572 -0.02137,0.072452 -0.090669,0.1047327 -0.1419981,0.06613 z M 0.31476948,2.993213 c -0.031757,-0.00903 -0.047787,-0.024168 -0.062988,-0.059399 -0.00974,-0.022608 -0.011571,-0.1475784 -0.011541,-0.8019858 2.98e-5,-0.7505736 5.275e-4,-0.7761914 0.015703,-0.8059731 0.030252,-0.059468 -0.023702,-0.056126 0.90632802,-0.056126 0.8329489,0 0.8542135,4.566e-4 0.8796252,0.018886 0.014286,0.010373 0.031538,0.032776 0.03825,0.049732 0.023672,0.059788 0.017592,0.079689 -0.075285,0.2475815 L 1.9173687,1.74405 2.0002427,1.8457146 c 0.1105541,0.1356202 0.1091403,0.1241219 0.044236,0.3586275 l -0.05037,0.1819938 0.050051,0.2403667 c 0.036279,0.1741906 0.048637,0.2494263 0.044904,0.2732768 -0.00646,0.041417 -0.03833,0.080206 -0.076212,0.092821 -0.034661,0.011523 -1.65760382,0.011933 -1.69807212,4.223e-4 z M 1.8218658,2.5850877 C 1.8025328,2.4934955 1.7866528,2.4034935 1.7865438,2.3850842 1.7864299,2.3666639 1.8052278,2.2832636 1.8283008,2.1997237 L 1.8702618,2.0478318 1.7804078,1.9375894 C 1.7303888,1.8762224 1.6881478,1.8158596 1.6851258,1.8014327 1.6753558,1.7547637 1.6877958,1.7116847 1.7359948,1.625214 1.7620878,1.578367 1.7861468,1.53461 1.7894138,1.527973 1.7941038,1.518363 1.657776,1.515903 1.1184545,1.515903 H 0.44154968 V 2.1337603 2.7516171 H 1.1492672 1.8569849 Z m 0.55439,0.4082484 c -0.031648,-0.00911 -0.047811,-0.02436 -0.062687,-0.058811 -0.013341,-0.030931 -0.1165371,-0.519934 -0.1165371,-0.5522245 0,-0.012289 0.019953,-0.093771 0.044325,-0.1810879 L 2.2856847,2.0424483 2.1979437,1.9360597 C 2.1496837,1.8775473 2.1061857,1.8201817 2.1012767,1.8085821 2.0801727,1.7586777 2.0888507,1.735495 2.2127282,1.5121456 2.2789372,1.392756 2.3414439,1.2893753 2.3516389,1.2824041 c 0.014965,-0.010236 0.1647878,-0.012672 0.7714551,-0.012672 0.8203457,0 0.7755349,-0.00312 0.8056686,0.056126 0.015142,0.029765 0.015644,0.055381 0.015644,0.8079068 0,0.7525232 -4.953e-4,0.7781227 -0.015644,0.8079074 -0.030068,0.059123 0.012781,0.055989 -0.7895633,0.057675 -0.405251,8.561e-4 -0.7485751,-0.00185 -0.762942,-0.00599 z M 3.7431493,2.1337628 V 1.515906 H 3.100177 2.4572052 l -0.061633,0.1109513 c -0.033891,0.061025 -0.061633,0.1143316 -0.061633,0.1184645 0,0.00413 0.032861,0.046521 0.07305,0.094198 0.078452,0.093095 0.096059,0.1234869 0.096059,0.1658426 0,0.014862 -0.022137,0.1065803 -0.049148,0.2038108 l -0.049151,0.176788 0.038029,0.1828287 0.038029,0.1828286 H 3.1119794 3.7431558 Z M 1.8837558,1.0499579 c -0.010626,-0.00657 -0.026358,-0.023238 -0.034918,-0.037046 -0.019274,-0.031093 -0.126924,-0.50635889 -0.126924,-0.56024439 0,-0.077488 0.076108,-0.1331568 0.1389933,-0.101659 0.01588,0.00796 0.035249,0.026139 0.043062,0.04044 0.017651,0.032322 0.1239488,0.5054546 0.1239488,0.5517768 0,0.087837 -0.079417,0.14662579 -0.1441735,0.10673069 z m 0.5218259,-0.0098 c -0.016972,-0.013711 -0.031574,-0.03653 -0.038481,-0.060337 -0.010655,-0.036789 -0.00885,-0.048599 0.046621,-0.2989601 0.03176,-0.1433633 0.064231,-0.2715197 0.072168,-0.2847951 0.038295,-0.064063 0.1101792,-0.07338 0.1546636,-0.020062 0.039951,0.0479008 0.038442,0.0694166 -0.024823,0.3531654 -0.03176,0.1424026 -0.063372,0.2692917 -0.070303,0.2819773 -0.028779,0.052663 -0.093771,0.066135 -0.1398788,0.028991 z M 2.14872,1.0063842 C 2.094844,0.9715392 2.092376,0.9557622 2.092394,0.64707051 c 1.63e-5,-0.255872 0.00112,-0.2773019 0.015732,-0.3060457 0.040142,-0.078925 0.134064,-0.079095 0.173811,-3.126e-4 0.01467,0.029087 0.015762,0.050394 0.015762,0.3116107 0,0.2516214 -0.00146,0.2830579 -0.014197,0.3063791 C 2.252076,1.016147 2.195035,1.036341 2.1487325,1.006384 Z"
       id="path1676"
       inkscape:label="logo" />
    <path
       style="fill:#99ffed;fill-opacity:1;stroke-width:0.00881711;filter:url(#filter2300)"
       d="m 2.1430697,3.9684158 c -0.048997,-0.035817 -0.050721,-0.047718 -0.050707,-0.3498701 1.66e-5,-0.3090516 0.0024,-0.3236674 0.058523,-0.3580561 0.040334,-0.024715 0.080683,-0.015656 0.1153151,0.025838 0.034773,0.041688 0.037176,0.067213 0.034074,0.3630954 -0.00235,0.2240403 -0.00401,0.2489829 -0.01833,0.2773958 -0.029103,0.057708 -0.091327,0.076331 -0.1388693,0.041576 z M 1.781636,3.9161471 C 1.745357,3.8965501 1.721927,3.8560941 1.721927,3.8130456 c 0,-0.02009 0.025502,-0.1509175 0.056657,-0.2907323 0.063788,-0.2861866 0.071451,-0.3038424 0.1364903,-0.3142995 0.061687,-0.00994 0.1128535,0.042673 0.1128535,0.1159847 0,0.038436 -0.100737,0.5000911 -0.1178654,0.5401525 -0.022492,0.05262 -0.082398,0.07687 -0.1284235,0.051995 z m 0.7399539,-0.00509 C 2.5074519,3.9004091 2.4904209,3.8817101 2.4838439,3.8695191 2.4772339,3.8573121 2.4457679,3.7300424 2.4139049,3.586678 2.3582539,3.336239 2.3564159,3.324519 2.3670979,3.2877179 c 0.026712,-0.092104 0.1348137,-0.1110088 0.1784244,-0.031189 0.007,0.012755 0.038988,0.1415295 0.071155,0.2861639 0.056908,0.2558939 0.058171,0.2640394 0.046905,0.3022572 -0.02137,0.072452 -0.090669,0.1047327 -0.1419981,0.06613 z M 0.31476948,2.993213 c -0.031757,-0.00903 -0.047787,-0.024168 -0.062988,-0.059399 -0.00974,-0.022608 -0.011571,-0.1475784 -0.011541,-0.8019858 2.98e-5,-0.7505736 5.275e-4,-0.7761914 0.015703,-0.8059731 0.030252,-0.059468 -0.023702,-0.056126 0.90632802,-0.056126 0.8329489,0 0.8542135,4.566e-4 0.8796252,0.018886 0.014286,0.010373 0.031538,0.032776 0.03825,0.049732 0.023672,0.059788 0.017592,0.079689 -0.075285,0.2475815 L 1.9173687,1.74405 2.0002427,1.8457146 c 0.1105541,0.1356202 0.1091403,0.1241219 0.044236,0.3586275 l -0.05037,0.1819938 0.050051,0.2403667 c 0.036279,0.1741906 0.048637,0.2494263 0.044904,0.2732768 -0.00646,0.041417 -0.03833,0.080206 -0.076212,0.092821 -0.034661,0.011523 -1.65760382,0.011933 -1.69807212,4.223e-4 z M 1.8218658,2.5850877 C 1.8025328,2.4934955 1.7866528,2.4034935 1.7865438,2.3850842 1.7864299,2.3666639 1.8052278,2.2832636 1.8283008,2.1997237 L 1.8702618,2.0478318 1.7804078,1.9375894 C 1.7303888,1.8762224 1.6881478,1.8158596 1.6851258,1.8014327 1.6753558,1.7547637 1.6877958,1.7116847 1.7359948,1.625214 1.7620878,1.578367 1.7861468,1.53461 1.7894138,1.527973 1.7941038,1.518363 1.657776,1.515903 1.1184545,1.515903 H 0.44154968 V 2.1337603 2.7516171 H 1.1492672 1.8569849 Z m 0.55439,0.4082484 c -0.031648,-0.00911 -0.047811,-0.02436 -0.062687,-0.058811 -0.013341,-0.030931 -0.1165371,-0.519934 -0.1165371,-0.5522245 0,-0.012289 0.019953,-0.093771 0.044325,-0.1810879 L 2.2856847,2.0424483 2.1979437,1.9360597 C 2.1496837,1.8775473 2.1061857,1.8201817 2.1012767,1.8085821 2.0801727,1.7586777 2.0888507,1.735495 2.2127282,1.5121456 2.2789372,1.392756 2.3414439,1.2893753 2.3516389,1.2824041 c 0.014965,-0.010236 0.1647878,-0.012672 0.7714551,-0.012672 0.8203457,0 0.7755349,-0.00312 0.8056686,0.056126 0.015142,0.029765 0.015644,0.055381 0.015644,0.8079068 0,0.7525232 -4.953e-4,0.7781227 -0.015644,0.8079074 -0.030068,0.059123 0.012781,0.055989 -0.7895633,0.057675 -0.405251,8.561e-4 -0.7485751,-0.00185 -0.762942,-0.00599 z M 3.7431493,2.1337628 V 1.515906 H 3.100177 2.4572052 l -0.061633,0.1109513 c -0.033891,0.061025 -0.061633,0.1143316 -0.061633,0.1184645 0,0.00413 0.032861,0.046521 0.07305,0.094198 0.078452,0.093095 0.096059,0.1234869 0.096059,0.1658426 0,0.014862 -0.022137,0.1065803 -0.049148,0.2038108 l -0.049151,0.176788 0.038029,0.1828287 0.038029,0.1828286 H 3.1119794 3.7431558 Z M 1.8837558,1.0499579 c -0.010626,-0.00657 -0.026358,-0.023238 -0.034918,-0.037046 -0.019274,-0.031093 -0.126924,-0.50635889 -0.126924,-0.56024439 0,-0.077488 0.076108,-0.1331568 0.1389933,-0.101659 0.01588,0.00796 0.035249,0.026139 0.043062,0.04044 0.017651,0.032322 0.1239488,0.5054546 0.1239488,0.5517768 0,0.087837 -0.079417,0.14662579 -0.1441735,0.10673069 z m 0.5218259,-0.0098 c -0.016972,-0.013711 -0.031574,-0.03653 -0.038481,-0.060337 -0.010655,-0.036789 -0.00885,-0.048599 0.046621,-0.2989601 0.03176,-0.1433633 0.064231,-0.2715197 0.072168,-0.2847951 0.038295,-0.064063 0.1101792,-0.07338 0.1546636,-0.020062 0.039951,0.0479008 0.038442,0.0694166 -0.024823,0.3531654 -0.03176,0.1424026 -0.063372,0.2692917 -0.070303,0.2819773 -0.028779,0.052663 -0.093771,0.066135 -0.1398788,0.028991 z M 2.14872,1.0063842 C 2.094844,0.9715392 2.092376,0.9557622 2.092394,0.64707051 c 1.63e-5,-0.255872 0.00112,-0.2773019 0.015732,-0.3060457 0.040142,-0.078925 0.134064,-0.079095 0.173811,-3.126e-4 0.01467,0.029087 0.015762,0.050394 0.015762,0.3116107 0,0.2516214 -0.00146,0.2830579 -0.014197,0.3063791 C 2.252076,1.016147 2.195035,1.036341 2.1487325,1.006384 Z"
       id="path2298"
       inkscape:label="effect" />
  </g>
</svg>
