<?xml version="1.0" encoding="UTF-8" standalone="no"?>
<svg
   xmlns:dc="http://purl.org/dc/elements/1.1/"
   xmlns:cc="http://creativecommons.org/ns#"
   xmlns:rdf="http://www.w3.org/1999/02/22-rdf-syntax-ns#"
   xmlns:svg="http://www.w3.org/2000/svg"
   xmlns="http://www.w3.org/2000/svg"
   xmlns:sodipodi="http://sodipodi.sourceforge.net/DTD/sodipodi-0.dtd"
   xmlns:inkscape="http://www.inkscape.org/namespaces/inkscape"
   width="16"
   height="16"
   viewBox="0 0 4.2333332 4.2333335"
   version="1.1"
   id="svg8"
   inkscape:version="1.0.2 (1.0.2+r75+1)"
   sodipodi:docname="indestructible.svg">
  <defs
     id="defs2">
    <filter
       inkscape:collect="always"
       style="color-interpolation-filters:sRGB"
       id="filter2986"
       x="-0.13040816"
       width="1.2608163"
       y="-0.11113043"
       height="1.2222609">
      <feGaussianBlur
         inkscape:collect="always"
         stdDeviation="0.17611329"
         id="feGaussianBlur2988" />
    </filter>
  </defs>
  <sodipodi:namedview
     id="base"
     pagecolor="#212121"
     bordercolor="#ffffff"
     borderopacity="1"
     inkscape:pageopacity="0"
     inkscape:pageshadow="2"
     inkscape:zoom="22.4"
     inkscape:cx="7.425213"
     inkscape:cy="9.1699218"
     inkscape:document-units="px"
     inkscape:current-layer="layer1"
     inkscape:document-rotation="0"
     showgrid="false"
     units="px"
     inkscape:pagecheckerboard="true"
     inkscape:showpageshadow="false"
     inkscape:window-width="1326"
     inkscape:window-height="704"
     inkscape:window-x="0"
     inkscape:window-y="0"
     inkscape:window-maximized="1" />
  <metadata
     id="metadata5">
    <rdf:RDF>
      <cc:Work
         rdf:about="">
        <dc:format>image/svg+xml</dc:format>
        <dc:type
           rdf:resource="http://purl.org/dc/dcmitype/StillImage" />
        <dc:title></dc:title>
      </cc:Work>
    </rdf:RDF>
  </metadata>
  <g
     inkscape:label="indestructible_module"
     inkscape:groupmode="layer"
     id="layer1">
    <path
       style="fill:#99ffed;fill-opacity:1;stroke-width:0.00826823"
       d="m 0.94718111,3.9999834 c -0.0103732,-0.01481 -0.0128712,-0.044569 -0.0128712,-0.153338 0,-0.1322686 4.0515e-4,-0.1353669 0.0202948,-0.1552566 0.0111621,-0.011162 0.026214,-0.020295 0.0334487,-0.020295 0.007235,0 0.0222866,0.00913 0.0334488,0.020295 0.01989,0.01989 0.020295,0.022988 0.020295,0.1552566 0,0.1546562 -0.00534,0.1717142 -0.0537435,0.1717142 -0.0195625,0 -0.0318801,-0.00554 -0.0408726,-0.018376 z m 2.25722669,0 c -0.010373,-0.01481 -0.012871,-0.044569 -0.012871,-0.153338 0,-0.1322686 4.051e-4,-0.1353669 0.020295,-0.1552566 0.011162,-0.011162 0.026214,-0.020295 0.033449,-0.020295 0.00723,0 0.022287,0.00913 0.033449,0.020295 0.01989,0.01989 0.020295,0.022988 0.020295,0.1552566 0,0.1546562 -0.00534,0.1717142 -0.053743,0.1717142 -0.019563,0 -0.03188,-0.00554 -0.040872,-0.018376 z M 0.51323035,3.5748943 c -0.0157856,-0.020068 -0.0171366,-0.032691 -0.0171366,-0.1601154 0,-0.1274249 0.001351,-0.1400473 0.0171366,-0.1601155 l 0.0171366,-0.021786 h 0.45700514 c 0.45410241,0 0.45710521,1.108e-4 0.47275601,0.017405 0.014247,0.015742 0.015751,0.031453 0.015751,0.1644966 0,0.1330435 -0.0015,0.1487543 -0.015751,0.1644965 -0.015651,0.017294 -0.018654,0.017404 -0.47275601,0.017404 H 0.53036692 Z M 1.3725261,3.4147789 V 3.3320966 H 0.98805345 0.60358077 v 0.082682 0.082682 H 0.98805345 1.3725261 Z m 1.4006794,0.1644965 c -0.014247,-0.015742 -0.015751,-0.031453 -0.015751,-0.1644965 0,-0.1330436 0.0015,-0.1487543 0.015751,-0.1644966 0.015651,-0.017294 0.018654,-0.017405 0.472756,-0.017405 h 0.4570052 l 0.017137,0.021786 c 0.015786,0.020068 0.017136,0.032691 0.017136,0.1601155 0,0.1274248 -0.00135,0.1400472 -0.017136,0.1601154 l -0.017137,0.021786 H 3.2459615 c -0.4541024,0 -0.4571052,-1.108e-4 -0.472756,-0.017405 z M 3.6297528,3.4147789 V 3.3320966 H 3.2452802 2.8608075 v 0.082682 0.082682 H 3.2452802 3.6297528 Z M 2.0842491,3.5739423 c -0.017081,-0.013953 -0.01763,-0.019769 -0.015386,-0.1629894 l 0.00233,-0.14852 0.022738,-0.01271 c 0.020456,-0.011435 0.025019,-0.011435 0.045475,0 l 0.022738,0.01271 0.00233,0.14852 c 0.00224,0.1432204 0.0017,0.1490362 -0.015386,0.1629894 -0.00974,0.00796 -0.02433,0.014469 -0.032418,0.014469 -0.00809,0 -0.022676,-0.00651 -0.032418,-0.014469 z M 1.6619142,3.1611002 C 1.631957,3.1501371 1.6288412,3.1331134 1.6288412,2.980398 c 0,-0.1349144 0.00153,-0.151485 0.01512,-0.1637843 0.013688,-0.012387 0.058621,-0.013684 0.4741417,-0.013684 0.4341918,0 0.4597615,8.177e-4 0.4727051,0.01512 0.011665,0.01289 0.013684,0.037054 0.013684,0.1637843 0,0.1153198 -0.00263,0.1522637 -0.011732,0.1647135 -0.011343,0.015517 -0.026787,0.0161 -0.4650879,0.01757 -0.2493456,8.363e-4 -0.4589366,-5.219e-4 -0.4657579,-0.00302 z M 2.5052736,2.9806968 V 2.9021486 H 2.1166668 1.72806 v 0.078548 0.078548 H 2.1166668 2.5052736 Z M 0.95460474,3.138169 c -0.0198898,-0.01989 -0.0202948,-0.022988 -0.0202948,-0.1552566 0,-0.1546563 0.005339,-0.1717143 0.0537435,-0.1717143 0.0484046,0 0.0537435,0.017058 0.0537435,0.1717143 0,0.1322686 -4.051e-4,0.1353668 -0.020295,0.1552566 -0.011162,0.011162 -0.026214,0.020295 -0.0334488,0.020295 -0.007235,0 -0.0222866,-0.00913 -0.0334484,-0.020295 z m 2.25722666,0 c -0.01989,-0.01989 -0.020295,-0.022988 -0.020295,-0.1552566 0,-0.1546563 0.00534,-0.1717143 0.053743,-0.1717143 0.048405,0 0.053743,0.017058 0.053743,0.1717143 0,0.1322686 -4.051e-4,0.1353668 -0.020295,0.1552566 -0.011162,0.011162 -0.026214,0.020295 -0.033449,0.020295 -0.00723,0 -0.022287,-0.00913 -0.033449,-0.020295 z M 0.51157559,2.7148427 c -0.008713,-0.010499 -0.0113477,-0.049059 -0.0113477,-0.1660952 0,-0.1502109 2.8318e-4,-0.1526512 0.0195195,-0.1682278 0.018683,-0.015129 0.0387529,-0.015806 0.46830605,-0.015806 0.42955316,0 0.44962316,6.772e-4 0.46830606,0.015806 0.019236,0.015577 0.019519,0.018017 0.019519,0.1682278 0,0.1170363 -0.00263,0.1555964 -0.011348,0.1660952 -0.010309,0.012422 -0.053903,0.013673 -0.47647796,0.013673 -0.42257523,0 -0.46616838,-0.00125 -0.47647695,-0.013673 z M 1.3725261,2.5507489 V 2.4722007 H 0.98805345 0.60358077 v 0.078548 0.078548 H 0.98805345 1.3725261 Z m 1.3962761,0.1640938 c -0.00871,-0.010499 -0.011348,-0.049059 -0.011348,-0.1660952 0,-0.1502109 2.828e-4,-0.1526512 0.019519,-0.1682278 0.018683,-0.015129 0.038753,-0.015806 0.4683061,-0.015806 0.4295531,0 0.4496231,6.772e-4 0.468306,0.015806 0.019236,0.015577 0.019519,0.018017 0.019519,0.1682278 0,0.1170363 -0.00263,0.1555964 -0.011348,0.1660952 -0.010309,0.012422 -0.053903,0.013673 -0.4764779,0.013673 -0.4225753,0 -0.4661685,-0.00125 -0.476478,-0.013673 z M 3.6297528,2.5507489 V 2.4722007 H 3.2452802 2.8608075 v 0.078548 0.078548 H 3.2452802 3.6297528 Z M 2.0807413,2.7051271 c -0.011602,-0.01282 -0.013684,-0.03648 -0.013684,-0.155516 0,-0.1575674 0.00393,-0.171117 0.049609,-0.171117 0.045748,0 0.049609,0.013432 0.049609,0.1725536 0,0.1269042 -0.00159,0.1432724 -0.015121,0.155516 -0.019969,0.018072 -0.053376,0.01739 -0.070414,-0.00144 z M 1.6453777,2.2820314 c -0.015312,-0.015312 -0.016536,-0.027561 -0.016536,-0.1653646 0,-0.1378039 0.00122,-0.1500531 0.016536,-0.1653646 0.016136,-0.016136 0.027561,-0.016536 0.4712891,-0.016536 0.4437284,0 0.4551535,4.011e-4 0.4712891,0.016536 0.015312,0.015311 0.016536,0.027561 0.016536,0.1653646 0,0.1378039 -0.00122,0.1500531 -0.016536,0.1653646 -0.016136,0.016136 -0.027561,0.016536 -0.4712891,0.016536 -0.4437284,0 -0.4551535,-4.011e-4 -0.4712891,-0.016536 z M 2.5011395,2.1166668 V 2.0381186 H 2.1166668 1.7321941 l -0.00242,0.069589 c -0.00133,0.038274 -5.052e-4,0.074588 0.00184,0.080698 0.0035,0.00912 0.072712,0.010725 0.3868964,0.00896 l 0.382629,-0.00215 z M 0.96241946,2.2839719 c -0.0228436,-0.015253 -0.0281095,-0.04642 -0.0281095,-0.1663725 0,-0.076083 0.003688,-0.1322729 0.009523,-0.1450787 0.0174184,-0.038229 0.0709239,-0.038446 0.0882782,-3.572e-4 0.00606,0.01329 0.00969,0.068729 0.00969,0.1479113 0,0.1156123 -0.00149,0.1285527 -0.017137,0.1484391 -0.016631,0.021143 -0.0436697,0.027858 -0.0622409,0.015458 z m 2.25722674,0 c -0.022844,-0.015253 -0.02811,-0.04642 -0.02811,-0.1663725 0,-0.076083 0.00369,-0.1322729 0.00952,-0.1450787 0.017418,-0.038229 0.070924,-0.038446 0.088278,-3.572e-4 0.012971,0.028469 0.013118,0.2630933 1.794e-4,0.2876737 -0.011865,0.022541 -0.023094,0.030209 -0.044237,0.030209 -0.00909,0 -0.02063,-0.00273 -0.025634,-0.00607 z M 0.5197474,1.8528139 C 0.50051105,1.8372373 0.5002279,1.834797 0.5002279,1.6845861 c 0,-0.1170363 0.002634,-0.1555964 0.0113477,-0.1660952 0.0103095,-0.012422 0.0539026,-0.013673 0.47647786,-0.013673 0.42257524,0 0.46616844,0.00125 0.47647794,0.013673 0.00871,0.010499 0.011348,0.049059 0.011348,0.1660952 0,0.1502109 -2.828e-4,0.1526512 -0.019519,0.1682278 -0.018683,0.015129 -0.038753,0.015806 -0.46830604,0.015806 -0.42955311,0 -0.44962308,-6.774e-4 -0.46830696,-0.015806 z M 1.3725261,1.6825847 V 1.6040366 H 0.98805345 0.60358077 v 0.078548 0.078548 H 0.98805345 1.3725261 Z m 1.404448,0.1702292 c -0.019236,-0.015577 -0.019519,-0.018017 -0.019519,-0.1682278 0,-0.1170363 0.00263,-0.1555964 0.011348,-0.1660952 0.010309,-0.012422 0.053903,-0.013673 0.476478,-0.013673 0.4225752,0 0.4661684,0.00125 0.4764779,0.013673 0.00871,0.010499 0.011348,0.049059 0.011348,0.1660952 0,0.1502109 -2.828e-4,0.1526512 -0.019519,0.1682278 -0.018683,0.015129 -0.038753,0.015806 -0.468306,0.015806 -0.4295532,0 -0.4496232,-6.772e-4 -0.4683061,-0.015806 z M 3.6297528,1.6825847 V 1.6040366 H 3.2452802 2.8608075 v 0.078548 0.078548 H 3.2452802 3.6297528 Z M 2.1001303,1.854531 C 2.0704526,1.8441223 2.0670574,1.82644 2.0670574,1.6822859 c 0,-0.1269042 0.00159,-0.1432724 0.015121,-0.155516 0.019969,-0.018072 0.053376,-0.01739 0.070414,0.00144 0.011602,0.01282 0.013684,0.03648 0.013684,0.155516 0,0.099792 -0.00299,0.144198 -0.010335,0.1535435 -0.012091,0.015381 -0.038175,0.02345 -0.055811,0.017265 z M 1.6425251,1.4152833 c -0.011665,-0.01289 -0.013684,-0.037054 -0.013684,-0.1637843 0,-0.1153427 0.00263,-0.1522612 0.011736,-0.1647135 0.011376,-0.015558 0.025973,-0.01605 0.4760897,-0.01605 0.4501169,0 0.4647137,4.92e-4 0.4760897,0.01605 0.00912,0.012466 0.011736,0.049567 0.011736,0.1661501 0,0.1349144 -0.00153,0.151485 -0.01512,0.1637843 -0.013688,0.012387 -0.058621,0.013684 -0.4741417,0.013684 -0.4341918,0 -0.4597615,-8.177e-4 -0.4727057,-0.015121 z M 2.5052736,1.2526368 V 1.1740886 H 2.1166668 1.72806 v 0.078548 0.078548 H 2.1166668 2.5052736 Z M 0.94749795,1.4042116 c -0.0107643,-0.015368 -0.013188,-0.043633 -0.013188,-0.1537904 0,-0.1322686 4.0515e-4,-0.1353668 0.0202948,-0.1552566 0.0111621,-0.011162 0.026214,-0.020295 0.0334487,-0.020295 0.007235,0 0.0222867,0.00913 0.0334489,0.020295 0.019846,0.019846 0.020292,0.023181 0.020173,0.1508952 -1.422e-4,0.1526379 -0.0054,0.1706388 -0.0509592,0.1744609 -0.0235803,0.00198 -0.0328626,-0.00152 -0.0432182,-0.016309 z M 3.2044078,1.4037593 c -0.010373,-0.01481 -0.012871,-0.044569 -0.012871,-0.1533381 0,-0.1322686 4.051e-4,-0.1353668 0.020295,-0.1552566 0.011162,-0.011162 0.026214,-0.020295 0.033449,-0.020295 0.00723,0 0.022287,0.00913 0.033449,0.020295 0.01989,0.01989 0.020295,0.022988 0.020295,0.1552566 0,0.1546563 -0.00534,0.1717143 -0.053743,0.1717143 -0.019563,0 -0.03188,-0.00554 -0.040872,-0.018376 z M 0.51323035,0.97867016 c -0.0157856,-0.0200681 -0.0171366,-0.0326906 -0.0171366,-0.16011542 0,-0.12742483 0.001351,-0.14004725 0.0171366,-0.16011543 l 0.0171366,-0.0217856 h 0.45700514 c 0.45410241,0 0.45710521,1.1054e-4 0.47275601,0.0174045 0.014247,0.0157423 0.015751,0.031453 0.015751,0.16449653 0,0.13304359 -0.0015,0.1487543 -0.015751,0.16449651 -0.015651,0.0172939 -0.018654,0.0174045 -0.47275601,0.0174045 H 0.53036692 Z M 1.3725261,0.81855474 V 0.73587244 H 0.98805345 0.60358077 v 0.0826823 0.0826823 H 0.98805345 1.3725261 Z m 1.4006794,0.16449651 c -0.014247,-0.0157422 -0.015751,-0.0314529 -0.015751,-0.16449651 0,-0.13304356 0.0015,-0.14875428 0.015751,-0.16449653 0.015651,-0.017294 0.018654,-0.0174045 0.472756,-0.0174045 h 0.4570052 l 0.017137,0.0217856 c 0.015786,0.0200682 0.017136,0.0326906 0.017136,0.16011543 0,0.12742483 -0.00135,0.14004727 -0.017136,0.16011542 L 3.7029667,1.0004558 H 3.2459615 c -0.4541024,0 -0.4571052,-1.108e-4 -0.472756,-0.0174045 z M 3.6297528,0.81855474 V 0.73587244 H 3.2452802 2.8608075 v 0.0826823 0.0826823 H 3.2452802 3.6297528 Z M 2.0842491,0.97771816 c -0.017081,-0.0139531 -0.01763,-0.019769 -0.015386,-0.16298939 l 0.00233,-0.14851998 0.022738,-0.0127105 c 0.020456,-0.0114352 0.025019,-0.0114352 0.045475,0 l 0.022738,0.0127105 0.00233,0.14851998 c 0.00224,0.14322038 0.0017,0.14903626 -0.015386,0.16298939 -0.00974,0.007958 -0.02433,0.0144694 -0.032418,0.0144694 -0.00809,0 -0.022676,-0.006511 -0.032418,-0.0144694 z M 0.95460474,0.54194488 c -0.0198898,-0.0198897 -0.0202948,-0.0229881 -0.0202948,-0.15525664 0,-0.15465622 0.005339,-0.17171427 0.0537435,-0.17171427 0.0484046,0 0.0537435,0.0170581 0.0537435,0.17171427 0,0.13226856 -4.051e-4,0.13536689 -0.020295,0.15525664 -0.011162,0.0111621 -0.026214,0.0202947 -0.0334488,0.0202947 -0.007235,0 -0.0222866,-0.009133 -0.0334484,-0.0202947 z m 2.25722666,0 c -0.01989,-0.0198897 -0.020295,-0.0229881 -0.020295,-0.15525664 0,-0.15465622 0.00534,-0.17171427 0.053743,-0.17171427 0.048405,0 0.053743,0.0170581 0.053743,0.17171427 0,0.13226856 -4.051e-4,0.13536689 -0.020295,0.15525664 -0.011162,0.0111621 -0.026214,0.0202947 -0.033449,0.0202947 -0.00723,0 -0.022287,-0.009133 -0.033449,-0.0202947 z"
       id="path2982"
       inkscape:label="logo" />
    <path
       style="fill:#99ffed;fill-opacity:1;stroke-width:0.00826823;filter:url(#filter2986)"
       d="m 0.94718111,3.9999834 c -0.0103732,-0.01481 -0.0128712,-0.044569 -0.0128712,-0.153338 0,-0.1322686 4.0515e-4,-0.1353669 0.0202948,-0.1552566 0.0111621,-0.011162 0.026214,-0.020295 0.0334487,-0.020295 0.007235,0 0.0222866,0.00913 0.0334488,0.020295 0.01989,0.01989 0.020295,0.022988 0.020295,0.1552566 0,0.1546562 -0.00534,0.1717142 -0.0537435,0.1717142 -0.0195625,0 -0.0318801,-0.00554 -0.0408726,-0.018376 z m 2.25722669,0 c -0.010373,-0.01481 -0.012871,-0.044569 -0.012871,-0.153338 0,-0.1322686 4.051e-4,-0.1353669 0.020295,-0.1552566 0.011162,-0.011162 0.026214,-0.020295 0.033449,-0.020295 0.00723,0 0.022287,0.00913 0.033449,0.020295 0.01989,0.01989 0.020295,0.022988 0.020295,0.1552566 0,0.1546562 -0.00534,0.1717142 -0.053743,0.1717142 -0.019563,0 -0.03188,-0.00554 -0.040872,-0.018376 z M 0.51323035,3.5748943 c -0.0157856,-0.020068 -0.0171366,-0.032691 -0.0171366,-0.1601154 0,-0.1274249 0.001351,-0.1400473 0.0171366,-0.1601155 l 0.0171366,-0.021786 h 0.45700514 c 0.45410241,0 0.45710521,1.108e-4 0.47275601,0.017405 0.014247,0.015742 0.015751,0.031453 0.015751,0.1644966 0,0.1330435 -0.0015,0.1487543 -0.015751,0.1644965 -0.015651,0.017294 -0.018654,0.017404 -0.47275601,0.017404 H 0.53036692 Z M 1.3725261,3.4147789 V 3.3320966 H 0.98805345 0.60358077 v 0.082682 0.082682 H 0.98805345 1.3725261 Z m 1.4006794,0.1644965 c -0.014247,-0.015742 -0.015751,-0.031453 -0.015751,-0.1644965 0,-0.1330436 0.0015,-0.1487543 0.015751,-0.1644966 0.015651,-0.017294 0.018654,-0.017405 0.472756,-0.017405 h 0.4570052 l 0.017137,0.021786 c 0.015786,0.020068 0.017136,0.032691 0.017136,0.1601155 0,0.1274248 -0.00135,0.1400472 -0.017136,0.1601154 l -0.017137,0.021786 H 3.2459615 c -0.4541024,0 -0.4571052,-1.108e-4 -0.472756,-0.017405 z M 3.6297528,3.4147789 V 3.3320966 H 3.2452802 2.8608075 v 0.082682 0.082682 H 3.2452802 3.6297528 Z M 2.0842491,3.5739423 c -0.017081,-0.013953 -0.01763,-0.019769 -0.015386,-0.1629894 l 0.00233,-0.14852 0.022738,-0.01271 c 0.020456,-0.011435 0.025019,-0.011435 0.045475,0 l 0.022738,0.01271 0.00233,0.14852 c 0.00224,0.1432204 0.0017,0.1490362 -0.015386,0.1629894 -0.00974,0.00796 -0.02433,0.014469 -0.032418,0.014469 -0.00809,0 -0.022676,-0.00651 -0.032418,-0.014469 z M 1.6619142,3.1611002 C 1.631957,3.1501371 1.6288412,3.1331134 1.6288412,2.980398 c 0,-0.1349144 0.00153,-0.151485 0.01512,-0.1637843 0.013688,-0.012387 0.058621,-0.013684 0.4741417,-0.013684 0.4341918,0 0.4597615,8.177e-4 0.4727051,0.01512 0.011665,0.01289 0.013684,0.037054 0.013684,0.1637843 0,0.1153198 -0.00263,0.1522637 -0.011732,0.1647135 -0.011343,0.015517 -0.026787,0.0161 -0.4650879,0.01757 -0.2493456,8.363e-4 -0.4589366,-5.219e-4 -0.4657579,-0.00302 z M 2.5052736,2.9806968 V 2.9021486 H 2.1166668 1.72806 v 0.078548 0.078548 H 2.1166668 2.5052736 Z M 0.95460474,3.138169 c -0.0198898,-0.01989 -0.0202948,-0.022988 -0.0202948,-0.1552566 0,-0.1546563 0.005339,-0.1717143 0.0537435,-0.1717143 0.0484046,0 0.0537435,0.017058 0.0537435,0.1717143 0,0.1322686 -4.051e-4,0.1353668 -0.020295,0.1552566 -0.011162,0.011162 -0.026214,0.020295 -0.0334488,0.020295 -0.007235,0 -0.0222866,-0.00913 -0.0334484,-0.020295 z m 2.25722666,0 c -0.01989,-0.01989 -0.020295,-0.022988 -0.020295,-0.1552566 0,-0.1546563 0.00534,-0.1717143 0.053743,-0.1717143 0.048405,0 0.053743,0.017058 0.053743,0.1717143 0,0.1322686 -4.051e-4,0.1353668 -0.020295,0.1552566 -0.011162,0.011162 -0.026214,0.020295 -0.033449,0.020295 -0.00723,0 -0.022287,-0.00913 -0.033449,-0.020295 z M 0.51157559,2.7148427 c -0.008713,-0.010499 -0.0113477,-0.049059 -0.0113477,-0.1660952 0,-0.1502109 2.8318e-4,-0.1526512 0.0195195,-0.1682278 0.018683,-0.015129 0.0387529,-0.015806 0.46830605,-0.015806 0.42955316,0 0.44962316,6.772e-4 0.46830606,0.015806 0.019236,0.015577 0.019519,0.018017 0.019519,0.1682278 0,0.1170363 -0.00263,0.1555964 -0.011348,0.1660952 -0.010309,0.012422 -0.053903,0.013673 -0.47647796,0.013673 -0.42257523,0 -0.46616838,-0.00125 -0.47647695,-0.013673 z M 1.3725261,2.5507489 V 2.4722007 H 0.98805345 0.60358077 v 0.078548 0.078548 H 0.98805345 1.3725261 Z m 1.3962761,0.1640938 c -0.00871,-0.010499 -0.011348,-0.049059 -0.011348,-0.1660952 0,-0.1502109 2.828e-4,-0.1526512 0.019519,-0.1682278 0.018683,-0.015129 0.038753,-0.015806 0.4683061,-0.015806 0.4295531,0 0.4496231,6.772e-4 0.468306,0.015806 0.019236,0.015577 0.019519,0.018017 0.019519,0.1682278 0,0.1170363 -0.00263,0.1555964 -0.011348,0.1660952 -0.010309,0.012422 -0.053903,0.013673 -0.4764779,0.013673 -0.4225753,0 -0.4661685,-0.00125 -0.476478,-0.013673 z M 3.6297528,2.5507489 V 2.4722007 H 3.2452802 2.8608075 v 0.078548 0.078548 H 3.2452802 3.6297528 Z M 2.0807413,2.7051271 c -0.011602,-0.01282 -0.013684,-0.03648 -0.013684,-0.155516 0,-0.1575674 0.00393,-0.171117 0.049609,-0.171117 0.045748,0 0.049609,0.013432 0.049609,0.1725536 0,0.1269042 -0.00159,0.1432724 -0.015121,0.155516 -0.019969,0.018072 -0.053376,0.01739 -0.070414,-0.00144 z M 1.6453777,2.2820314 c -0.015312,-0.015312 -0.016536,-0.027561 -0.016536,-0.1653646 0,-0.1378039 0.00122,-0.1500531 0.016536,-0.1653646 0.016136,-0.016136 0.027561,-0.016536 0.4712891,-0.016536 0.4437284,0 0.4551535,4.011e-4 0.4712891,0.016536 0.015312,0.015311 0.016536,0.027561 0.016536,0.1653646 0,0.1378039 -0.00122,0.1500531 -0.016536,0.1653646 -0.016136,0.016136 -0.027561,0.016536 -0.4712891,0.016536 -0.4437284,0 -0.4551535,-4.011e-4 -0.4712891,-0.016536 z M 2.5011395,2.1166668 V 2.0381186 H 2.1166668 1.7321941 l -0.00242,0.069589 c -0.00133,0.038274 -5.052e-4,0.074588 0.00184,0.080698 0.0035,0.00912 0.072712,0.010725 0.3868964,0.00896 l 0.382629,-0.00215 z M 0.96241946,2.2839719 c -0.0228436,-0.015253 -0.0281095,-0.04642 -0.0281095,-0.1663725 0,-0.076083 0.003688,-0.1322729 0.009523,-0.1450787 0.0174184,-0.038229 0.0709239,-0.038446 0.0882782,-3.572e-4 0.00606,0.01329 0.00969,0.068729 0.00969,0.1479113 0,0.1156123 -0.00149,0.1285527 -0.017137,0.1484391 -0.016631,0.021143 -0.0436697,0.027858 -0.0622409,0.015458 z m 2.25722674,0 c -0.022844,-0.015253 -0.02811,-0.04642 -0.02811,-0.1663725 0,-0.076083 0.00369,-0.1322729 0.00952,-0.1450787 0.017418,-0.038229 0.070924,-0.038446 0.088278,-3.572e-4 0.012971,0.028469 0.013118,0.2630933 1.794e-4,0.2876737 -0.011865,0.022541 -0.023094,0.030209 -0.044237,0.030209 -0.00909,0 -0.02063,-0.00273 -0.025634,-0.00607 z M 0.5197474,1.8528139 C 0.50051105,1.8372373 0.5002279,1.834797 0.5002279,1.6845861 c 0,-0.1170363 0.002634,-0.1555964 0.0113477,-0.1660952 0.0103095,-0.012422 0.0539026,-0.013673 0.47647786,-0.013673 0.42257524,0 0.46616844,0.00125 0.47647794,0.013673 0.00871,0.010499 0.011348,0.049059 0.011348,0.1660952 0,0.1502109 -2.828e-4,0.1526512 -0.019519,0.1682278 -0.018683,0.015129 -0.038753,0.015806 -0.46830604,0.015806 -0.42955311,0 -0.44962308,-6.774e-4 -0.46830696,-0.015806 z M 1.3725261,1.6825847 V 1.6040366 H 0.98805345 0.60358077 v 0.078548 0.078548 H 0.98805345 1.3725261 Z m 1.404448,0.1702292 c -0.019236,-0.015577 -0.019519,-0.018017 -0.019519,-0.1682278 0,-0.1170363 0.00263,-0.1555964 0.011348,-0.1660952 0.010309,-0.012422 0.053903,-0.013673 0.476478,-0.013673 0.4225752,0 0.4661684,0.00125 0.4764779,0.013673 0.00871,0.010499 0.011348,0.049059 0.011348,0.1660952 0,0.1502109 -2.828e-4,0.1526512 -0.019519,0.1682278 -0.018683,0.015129 -0.038753,0.015806 -0.468306,0.015806 -0.4295532,0 -0.4496232,-6.772e-4 -0.4683061,-0.015806 z M 3.6297528,1.6825847 V 1.6040366 H 3.2452802 2.8608075 v 0.078548 0.078548 H 3.2452802 3.6297528 Z M 2.1001303,1.854531 C 2.0704526,1.8441223 2.0670574,1.82644 2.0670574,1.6822859 c 0,-0.1269042 0.00159,-0.1432724 0.015121,-0.155516 0.019969,-0.018072 0.053376,-0.01739 0.070414,0.00144 0.011602,0.01282 0.013684,0.03648 0.013684,0.155516 0,0.099792 -0.00299,0.144198 -0.010335,0.1535435 -0.012091,0.015381 -0.038175,0.02345 -0.055811,0.017265 z M 1.6425251,1.4152833 c -0.011665,-0.01289 -0.013684,-0.037054 -0.013684,-0.1637843 0,-0.1153427 0.00263,-0.1522612 0.011736,-0.1647135 0.011376,-0.015558 0.025973,-0.01605 0.4760897,-0.01605 0.4501169,0 0.4647137,4.92e-4 0.4760897,0.01605 0.00912,0.012466 0.011736,0.049567 0.011736,0.1661501 0,0.1349144 -0.00153,0.151485 -0.01512,0.1637843 -0.013688,0.012387 -0.058621,0.013684 -0.4741417,0.013684 -0.4341918,0 -0.4597615,-8.177e-4 -0.4727057,-0.015121 z M 2.5052736,1.2526368 V 1.1740886 H 2.1166668 1.72806 v 0.078548 0.078548 H 2.1166668 2.5052736 Z M 0.94749795,1.4042116 c -0.0107643,-0.015368 -0.013188,-0.043633 -0.013188,-0.1537904 0,-0.1322686 4.0515e-4,-0.1353668 0.0202948,-0.1552566 0.0111621,-0.011162 0.026214,-0.020295 0.0334487,-0.020295 0.007235,0 0.0222867,0.00913 0.0334489,0.020295 0.019846,0.019846 0.020292,0.023181 0.020173,0.1508952 -1.422e-4,0.1526379 -0.0054,0.1706388 -0.0509592,0.1744609 -0.0235803,0.00198 -0.0328626,-0.00152 -0.0432182,-0.016309 z M 3.2044078,1.4037593 c -0.010373,-0.01481 -0.012871,-0.044569 -0.012871,-0.1533381 0,-0.1322686 4.051e-4,-0.1353668 0.020295,-0.1552566 0.011162,-0.011162 0.026214,-0.020295 0.033449,-0.020295 0.00723,0 0.022287,0.00913 0.033449,0.020295 0.01989,0.01989 0.020295,0.022988 0.020295,0.1552566 0,0.1546563 -0.00534,0.1717143 -0.053743,0.1717143 -0.019563,0 -0.03188,-0.00554 -0.040872,-0.018376 z M 0.51323035,0.97867016 c -0.0157856,-0.0200681 -0.0171366,-0.0326906 -0.0171366,-0.16011542 0,-0.12742483 0.001351,-0.14004725 0.0171366,-0.16011543 l 0.0171366,-0.0217856 h 0.45700514 c 0.45410241,0 0.45710521,1.1054e-4 0.47275601,0.0174045 0.014247,0.0157423 0.015751,0.031453 0.015751,0.16449653 0,0.13304359 -0.0015,0.1487543 -0.015751,0.16449651 -0.015651,0.0172939 -0.018654,0.0174045 -0.47275601,0.0174045 H 0.53036692 Z M 1.3725261,0.81855474 V 0.73587244 H 0.98805345 0.60358077 v 0.0826823 0.0826823 H 0.98805345 1.3725261 Z m 1.4006794,0.16449651 c -0.014247,-0.0157422 -0.015751,-0.0314529 -0.015751,-0.16449651 0,-0.13304356 0.0015,-0.14875428 0.015751,-0.16449653 0.015651,-0.017294 0.018654,-0.0174045 0.472756,-0.0174045 h 0.4570052 l 0.017137,0.0217856 c 0.015786,0.0200682 0.017136,0.0326906 0.017136,0.16011543 0,0.12742483 -0.00135,0.14004727 -0.017136,0.16011542 L 3.7029667,1.0004558 H 3.2459615 c -0.4541024,0 -0.4571052,-1.108e-4 -0.472756,-0.0174045 z M 3.6297528,0.81855474 V 0.73587244 H 3.2452802 2.8608075 v 0.0826823 0.0826823 H 3.2452802 3.6297528 Z M 2.0842491,0.97771816 c -0.017081,-0.0139531 -0.01763,-0.019769 -0.015386,-0.16298939 l 0.00233,-0.14851998 0.022738,-0.0127105 c 0.020456,-0.0114352 0.025019,-0.0114352 0.045475,0 l 0.022738,0.0127105 0.00233,0.14851998 c 0.00224,0.14322038 0.0017,0.14903626 -0.015386,0.16298939 -0.00974,0.007958 -0.02433,0.0144694 -0.032418,0.0144694 -0.00809,0 -0.022676,-0.006511 -0.032418,-0.0144694 z M 0.95460474,0.54194488 c -0.0198898,-0.0198897 -0.0202948,-0.0229881 -0.0202948,-0.15525664 0,-0.15465622 0.005339,-0.17171427 0.0537435,-0.17171427 0.0484046,0 0.0537435,0.0170581 0.0537435,0.17171427 0,0.13226856 -4.051e-4,0.13536689 -0.020295,0.15525664 -0.011162,0.0111621 -0.026214,0.0202947 -0.0334488,0.0202947 -0.007235,0 -0.0222866,-0.009133 -0.0334484,-0.0202947 z m 2.25722666,0 c -0.01989,-0.0198897 -0.020295,-0.0229881 -0.020295,-0.15525664 0,-0.15465622 0.00534,-0.17171427 0.053743,-0.17171427 0.048405,0 0.053743,0.0170581 0.053743,0.17171427 0,0.13226856 -4.051e-4,0.13536689 -0.020295,0.15525664 -0.011162,0.0111621 -0.026214,0.0202947 -0.033449,0.0202947 -0.00723,0 -0.022287,-0.009133 -0.033449,-0.0202947 z"
       id="path2984"
       inkscape:label="effect" />
  </g>
</svg>
