<?xml version="1.0" encoding="UTF-8" standalone="no"?>
<svg
   xmlns:dc="http://purl.org/dc/elements/1.1/"
   xmlns:cc="http://creativecommons.org/ns#"
   xmlns:rdf="http://www.w3.org/1999/02/22-rdf-syntax-ns#"
   xmlns:svg="http://www.w3.org/2000/svg"
   xmlns="http://www.w3.org/2000/svg"
   xmlns:sodipodi="http://sodipodi.sourceforge.net/DTD/sodipodi-0.dtd"
   xmlns:inkscape="http://www.inkscape.org/namespaces/inkscape"
   width="16"
   height="16"
   viewBox="0 0 4.2333332 4.2333335"
   version="1.1"
   id="svg8"
   inkscape:version="1.0.2 (1.0.2+r75+1)"
   sodipodi:docname="module.svg">
  <defs
     id="defs2">
    <filter
       inkscape:collect="always"
       style="color-interpolation-filters:sRGB"
       id="filter1554"
       x="-0.19457719"
       width="1.3891544"
       y="-0.16745475"
       height="1.3349095">
      <feGaussianBlur
         inkscape:collect="always"
         stdDeviation="0.2558175"
         id="feGaussianBlur1556" />
    </filter>
  </defs>
  <sodipodi:namedview
     id="base"
     pagecolor="#222222"
     bordercolor="#ffffff"
     borderopacity="1"
     inkscape:pageopacity="0"
     inkscape:pageshadow="2"
     inkscape:zoom="23.753869"
     inkscape:cx="8.166993"
     inkscape:cy="8.1851011"
     inkscape:document-units="px"
     inkscape:current-layer="layer1"
     inkscape:document-rotation="0"
     showgrid="false"
     units="px"
     inkscape:pagecheckerboard="true"
     inkscape:showpageshadow="false"
     inkscape:window-width="1326"
     inkscape:window-height="704"
     inkscape:window-x="0"
     inkscape:window-y="0"
     inkscape:window-maximized="1" />
  <metadata
     id="metadata5">
    <rdf:RDF>
      <cc:Work
         rdf:about="">
        <dc:format>image/svg+xml</dc:format>
        <dc:type
           rdf:resource="http://purl.org/dc/dcmitype/StillImage" />
        <dc:title></dc:title>
      </cc:Work>
    </rdf:RDF>
  </metadata>
  <g
     inkscape:label="module_logo"
     inkscape:groupmode="layer"
     id="layer1"
     sodipodi:insensitive="true">
    <path
       style="fill:#99ffed;fill-opacity:1;stroke-width:0.00826823;filter:url(#filter1554)"
       d="M 1.3125814,3.5647269 C 0.88170331,3.3489652 0.52916667,3.1704166 0.52916667,3.1679524 c 0,-0.00246 0.14789796,-0.077231 0.32866213,-0.1661472 L 1.1864909,2.8401385 1.6474447,3.0703141 2.1083985,3.3004897 2.5713936,3.0691102 3.0343887,2.8377308 3.357531,2.9988893 c 0.1777281,0.088637 0.3248734,0.1638623 0.3269894,0.1671668 0.0043,0.00672 -1.5618905,0.7921368 -1.5781718,0.7914204 C 2.1006548,3.957226 1.7434595,3.7804887 1.3125814,3.5647269 Z m 0,-1.0583334 C 0.88170331,2.2906318 0.52916667,2.1119604 0.52916667,2.109346 c 0,-0.00261 0.1404019,-0.073771 0.31200421,-0.1581255 L 1.1531751,1.7978487 1.6307868,2.036541 2.1083985,2.2752333 2.5879234,2.0355848 3.0674484,1.7959364 3.3740628,1.9488254 c 0.1686379,0.084089 0.3083448,0.1555928 0.3104597,0.1588973 0.0043,0.00672 -1.5618938,0.7921367 -1.5781739,0.7914204 C 2.1006548,2.8988926 1.7434595,2.7221553 1.3125814,2.5063935 Z M 1.3122126,1.4809488 C 0.8811319,1.2650856 0.53017042,1.0857667 0.53229842,1.0824622 0.53442642,1.0791576 0.88991954,0.8997361 1.322283,0.68374776 L 2.1083985,0.29104167 2.894514,0.68374776 C 3.3268775,0.8997361 3.6823706,1.0791577 3.6844986,1.0824622 c 0.00433,0.00672 -1.5618557,0.7921374 -1.57815,0.7914205 -0.00569,-2.506e-4 -0.363055,-0.1770708 -0.794136,-0.3929339 z"
       id="path1550"
       inkscape:label="blur_effect" />
    <path
       style="fill:#99ffed;fill-opacity:1;stroke-width:0.00826823"
       d="M 1.3125814,3.5647269 C 0.88170331,3.3489652 0.52916667,3.1704166 0.52916667,3.1679524 c 0,-0.00246 0.14789796,-0.077231 0.32866213,-0.1661472 L 1.1864909,2.8401385 1.6474447,3.0703141 2.1083985,3.3004897 2.5713936,3.0691102 3.0343887,2.8377308 3.357531,2.9988893 c 0.1777281,0.088637 0.3248734,0.1638623 0.3269894,0.1671668 0.0043,0.00672 -1.5618905,0.7921368 -1.5781718,0.7914204 C 2.1006548,3.957226 1.7434595,3.7804887 1.3125814,3.5647269 Z m 0,-1.0583334 C 0.88170331,2.2906318 0.52916667,2.1119604 0.52916667,2.109346 c 0,-0.00261 0.1404019,-0.073771 0.31200421,-0.1581255 L 1.1531751,1.7978487 1.6307868,2.036541 2.1083985,2.2752333 2.5879234,2.0355848 3.0674484,1.7959364 3.3740628,1.9488254 c 0.1686379,0.084089 0.3083448,0.1555928 0.3104597,0.1588973 0.0043,0.00672 -1.5618938,0.7921367 -1.5781739,0.7914204 C 2.1006548,2.8988926 1.7434595,2.7221553 1.3125814,2.5063935 Z M 1.3122126,1.4809488 C 0.8811319,1.2650856 0.53017042,1.0857667 0.53229842,1.0824622 0.53442642,1.0791576 0.88991954,0.8997361 1.322283,0.68374776 L 2.1083985,0.29104167 2.894514,0.68374776 C 3.3268775,0.8997361 3.6823706,1.0791577 3.6844986,1.0824622 c 0.00433,0.00672 -1.5618557,0.7921374 -1.57815,0.7914205 -0.00569,-2.506e-4 -0.363055,-0.1770708 -0.794136,-0.3929339 z"
       id="path1552"
       inkscape:label="module" />
  </g>
</svg>
