<?xml version="1.0" encoding="UTF-8" standalone="no"?>
<svg
   xmlns:dc="http://purl.org/dc/elements/1.1/"
   xmlns:cc="http://creativecommons.org/ns#"
   xmlns:rdf="http://www.w3.org/1999/02/22-rdf-syntax-ns#"
   xmlns:svg="http://www.w3.org/2000/svg"
   xmlns="http://www.w3.org/2000/svg"
   xmlns:sodipodi="http://sodipodi.sourceforge.net/DTD/sodipodi-0.dtd"
   xmlns:inkscape="http://www.inkscape.org/namespaces/inkscape"
   width="16"
   height="16"
   viewBox="0 0 4.2333332 4.2333335"
   version="1.1"
   id="svg8"
   inkscape:version="1.0.2 (1.0.2+r75+1)"
   sodipodi:docname="recordable.svg">
  <defs
     id="defs2">
    <filter
       inkscape:collect="always"
       style="color-interpolation-filters:sRGB"
       id="filter4290"
       x="-0.12012237"
       width="1.2402447"
       y="-0.11987788"
       height="1.2397558">
      <feGaussianBlur
         inkscape:collect="always"
         stdDeviation="0.17961305"
         id="feGaussianBlur4292" />
    </filter>
  </defs>
  <sodipodi:namedview
     id="base"
     pagecolor="#212121"
     bordercolor="#ffffff"
     borderopacity="1"
     inkscape:pageopacity="0"
     inkscape:pageshadow="2"
     inkscape:zoom="22.4"
     inkscape:cx="7.4976668"
     inkscape:cy="8.1967999"
     inkscape:document-units="px"
     inkscape:current-layer="layer1"
     inkscape:document-rotation="0"
     showgrid="false"
     units="px"
     inkscape:pagecheckerboard="true"
     inkscape:showpageshadow="false"
     inkscape:window-width="1326"
     inkscape:window-height="704"
     inkscape:window-x="0"
     inkscape:window-y="0"
     inkscape:window-maximized="1" />
  <metadata
     id="metadata5">
    <rdf:RDF>
      <cc:Work
         rdf:about="">
        <dc:format>image/svg+xml</dc:format>
        <dc:type
           rdf:resource="http://purl.org/dc/dcmitype/StillImage" />
        <dc:title></dc:title>
      </cc:Work>
    </rdf:RDF>
  </metadata>
  <g
     inkscape:label="recordable"
     inkscape:groupmode="layer"
     id="layer1"
     sodipodi:insensitive="true">
    <path
       style="fill:#99ffed;fill-opacity:1;stroke-width:0.00826823"
       d="M 0.53117295,3.7020402 0.32246096,3.4932077 V 1.9570332 c 0,-1.68634511 -0.003934,-1.55931071 0.0496883,-1.60443111 0.0140127,-0.0117909 0.0397912,-0.0252922 0.0572857,-0.030003 0.0215718,-0.005809 0.57024898,-0.007874 1.70494644,-0.006419 1.5751332,0.002021 1.6746873,0.002993 1.6995827,0.0166071 0.014544,0.007953 0.036869,0.0281274 0.049609,0.0448311 l 0.023165,0.0303704 0.00213,1.69853491 0.00213,1.6985349 -0.017036,0.030311 c -0.00937,0.016671 -0.030504,0.039549 -0.046965,0.05084 -0.029001,0.019892 -0.03495,0.020605 -0.1917958,0.022985 L 3.493327,3.9116514 3.4398224,3.8575185 3.3863178,3.8033857 H 2.3290087 1.2716995 l -0.055669,0.053743 -0.055669,0.053743 H 0.95012361 0.73988496 Z M 1.6949871,3.2783531 V 2.9600262 H 1.79834 1.9016928 V 3.2783531 3.5966799 H 2.4308595 2.9600262 V 3.1708271 2.7449743 l -0.8454265,0.00211 -0.8454264,0.00211 -0.00214,0.4237467 -0.00214,0.4237468 h 0.215049 0.2150491 z m 1.8589276,0.1136881 c 0.018671,-0.048886 0.03633,-0.095395 0.039241,-0.1033528 0.00418,-0.011434 7.715e-4,-0.014469 -0.016262,-0.014469 h -0.021555 v -0.090951 -0.090951 h -0.041341 -0.041341 v 0.090951 0.090951 h -0.02136 c -0.011748,0 -0.020119,0.00302 -0.018604,0.00671 0.00152,0.00369 0.019499,0.050199 0.039963,0.10335 0.020464,0.053151 0.03948,0.096639 0.042259,0.096641 0.00278,1.6e-6 0.020328,-0.039995 0.038999,-0.088881 z M 3.2824872,1.2691733 V 0.5291667 H 2.1166668 0.95084641 V 1.2691733 2.0091798 H 2.1166668 3.2824872 Z M 1.1658204,1.690853 V 1.5875001 H 2.1166668 3.0675132 V 1.690853 1.7942058 H 2.1166668 1.1658204 Z m 0,-0.4216797 V 1.1658204 H 2.1166668 3.0675132 V 1.2691733 1.3725261 H 2.1166668 1.1658204 Z m 0,-0.42167976 V 0.74414067 H 2.1166668 3.0675132 V 0.84749354 0.95084641 H 2.1166668 1.1658204 Z M 0.73587244,0.74000656 V 0.63665369 H 0.63251957 0.5291667 V 0.74000656 0.84335943 H 0.63251957 0.73587244 Z M 3.7023469,0.7379395 3.7000328,0.63251957 H 3.5966799 3.493327 L 3.491017,0.7379395 3.488707,0.84335943 h 0.107981 0.107981 z"
       id="path4286"
       inkscape:label="logo" />
    <path
       style="fill:#99ffed;fill-opacity:1;stroke-width:0.00826823;filter:url(#filter4290)"
       d="M 0.53117295,3.7020402 0.32246096,3.4932077 V 1.9570332 c 0,-1.68634511 -0.003934,-1.55931071 0.0496883,-1.60443111 0.0140127,-0.0117909 0.0397912,-0.0252922 0.0572857,-0.030003 0.0215718,-0.005809 0.57024898,-0.007874 1.70494644,-0.006419 1.5751332,0.002021 1.6746873,0.002993 1.6995827,0.0166071 0.014544,0.007953 0.036869,0.0281274 0.049609,0.0448311 l 0.023165,0.0303704 0.00213,1.69853491 0.00213,1.6985349 -0.017036,0.030311 c -0.00937,0.016671 -0.030504,0.039549 -0.046965,0.05084 -0.029001,0.019892 -0.03495,0.020605 -0.1917958,0.022985 L 3.493327,3.9116514 3.4398224,3.8575185 3.3863178,3.8033857 H 2.3290087 1.2716995 l -0.055669,0.053743 -0.055669,0.053743 H 0.95012361 0.73988496 Z M 1.6949871,3.2783531 V 2.9600262 H 1.79834 1.9016928 V 3.2783531 3.5966799 H 2.4308595 2.9600262 V 3.1708271 2.7449743 l -0.8454265,0.00211 -0.8454264,0.00211 -0.00214,0.4237467 -0.00214,0.4237468 h 0.215049 0.2150491 z m 1.8589276,0.1136881 c 0.018671,-0.048886 0.03633,-0.095395 0.039241,-0.1033528 0.00418,-0.011434 7.715e-4,-0.014469 -0.016262,-0.014469 h -0.021555 v -0.090951 -0.090951 h -0.041341 -0.041341 v 0.090951 0.090951 h -0.02136 c -0.011748,0 -0.020119,0.00302 -0.018604,0.00671 0.00152,0.00369 0.019499,0.050199 0.039963,0.10335 0.020464,0.053151 0.03948,0.096639 0.042259,0.096641 0.00278,1.6e-6 0.020328,-0.039995 0.038999,-0.088881 z M 3.2824872,1.2691733 V 0.5291667 H 2.1166668 0.95084641 V 1.2691733 2.0091798 H 2.1166668 3.2824872 Z M 1.1658204,1.690853 V 1.5875001 H 2.1166668 3.0675132 V 1.690853 1.7942058 H 2.1166668 1.1658204 Z m 0,-0.4216797 V 1.1658204 H 2.1166668 3.0675132 V 1.2691733 1.3725261 H 2.1166668 1.1658204 Z m 0,-0.42167976 V 0.74414067 H 2.1166668 3.0675132 V 0.84749354 0.95084641 H 2.1166668 1.1658204 Z M 0.73587244,0.74000656 V 0.63665369 H 0.63251957 0.5291667 V 0.74000656 0.84335943 H 0.63251957 0.73587244 Z M 3.7023469,0.7379395 3.7000328,0.63251957 H 3.5966799 3.493327 L 3.491017,0.7379395 3.488707,0.84335943 h 0.107981 0.107981 z"
       id="path4288"
       inkscape:label="effect" />
  </g>
</svg>
