<?xml version="1.0" encoding="UTF-8" standalone="no"?>
<svg
   xmlns:dc="http://purl.org/dc/elements/1.1/"
   xmlns:cc="http://creativecommons.org/ns#"
   xmlns:rdf="http://www.w3.org/1999/02/22-rdf-syntax-ns#"
   xmlns:svg="http://www.w3.org/2000/svg"
   xmlns="http://www.w3.org/2000/svg"
   xmlns:sodipodi="http://sodipodi.sourceforge.net/DTD/sodipodi-0.dtd"
   xmlns:inkscape="http://www.inkscape.org/namespaces/inkscape"
   width="16"
   height="16"
   viewBox="0 0 4.2333332 4.2333335"
   version="1.1"
   id="svg8"
   inkscape:version="1.0.1 (1.0.1+r73)"
   sodipodi:docname="mega_assets.svg">
  <defs
     id="defs2">
    <filter
       inkscape:collect="always"
       style="color-interpolation-filters:sRGB"
       id="filter1570"
       x="-0.48000001"
       width="1.96"
       y="-0.47999999"
       height="1.96">
      <feGaussianBlur
         inkscape:collect="always"
         stdDeviation="0.84666661"
         id="feGaussianBlur1572" />
    </filter>
  </defs>
  <sodipodi:namedview
     id="base"
     pagecolor="#212121"
     bordercolor="#ffffff"
     borderopacity="0"
     inkscape:pageopacity="0"
     inkscape:pageshadow="2"
     inkscape:zoom="12.846174"
     inkscape:cx="7.6112445"
     inkscape:cy="8.7306659"
     inkscape:document-units="px"
     inkscape:current-layer="layer1"
     inkscape:document-rotation="0"
     showgrid="false"
     units="px"
     inkscape:pagecheckerboard="true"
     inkscape:showpageshadow="false"
     inkscape:window-width="1326"
     inkscape:window-height="704"
     inkscape:window-x="0"
     inkscape:window-y="27"
     inkscape:window-maximized="1" />
  <metadata
     id="metadata5">
    <rdf:RDF>
      <cc:Work
         rdf:about="">
        <dc:format>image/svg+xml</dc:format>
        <dc:type
           rdf:resource="http://purl.org/dc/dcmitype/StillImage" />
        <dc:title></dc:title>
      </cc:Work>
    </rdf:RDF>
  </metadata>
  <g
     inkscape:label="mega_assets_logo"
     inkscape:groupmode="layer"
     id="layer1"
     sodipodi:insensitive="true">
    <g
       id="g840"
       inkscape:label="effect"
       transform="matrix(0.75000006,0,0,0.75000006,0.54583545,0.48709792)"
       style="fill:#99ffed;fill-opacity:1;filter:url(#filter1570)">
      <path
         d="M 2.472252,2.5031231 H 1.761071 V 1.5740111 H 0 v 2.659322 H 4.233333 V 1.5740111 H 2.472252 Z m -1.338189,0.504351 v 0.608707 H 0.627008 V 3.0074741 H 0.377561 l 0.502975,-0.71046 0.502984,0.71046 z"
         id="path76"
         inkscape:label="body"
         style="fill:#99ffed;fill-opacity:1;stroke-width:0.00933971" />
      <polygon
         points="122.499,24.83 36.181,186.105 218.621,186.105 218.621,24.83 "
         id="polygon74"
         inkscape:label="left_trapez"
         style="fill:#99ffed;fill-opacity:1"
         transform="matrix(0.00951324,0,0,0.00916935,-0.318722,-0.22767492)" />
      <polygon
         points="293.378,24.83 293.378,186.105 476.106,186.105 397.738,24.83 "
         id="polygon72"
         inkscape:label="right_trapez"
         style="fill:#99ffed;fill-opacity:1"
         transform="matrix(0.00951324,0,0,0.00916935,-0.318722,-0.22767492)" />
      <rect
         height="2.4297681"
         width="0.55896926"
         x="1.8371756"
         y="6.9388939e-18"
         id="rect70"
         inkscape:label="v_bar"
         style="fill:#99ffed;fill-opacity:1;stroke-width:0.00933971" />
      <polygon
         points="88.334,344.822 107.412,344.822 107.412,411.207 144.712,411.207 144.712,344.822 163.789,344.822 126.062,289.533 "
         id="polygon68"
         inkscape:label="up_arrow"
         style="fill:#99ffed;fill-opacity:1"
         transform="matrix(0.00951324,0,0,0.00916935,-0.318722,-0.22767492)" />
    </g>
    <g
       id="g852"
       inkscape:label="logo"
       style="fill:#99ffed;fill-opacity:1"
       transform="matrix(0.93750008,0,0,0.93750008,0.1553382,0.1385987)">
      <path
         d="M 2.472252,2.5031231 H 1.761071 V 1.5740111 H 0 v 2.659322 H 4.233333 V 1.5740111 H 2.472252 Z m -1.338189,0.504351 v 0.608707 H 0.627008 V 3.0074741 H 0.377561 l 0.502975,-0.71046 0.502984,0.71046 z"
         id="path842"
         inkscape:label="body"
         style="fill:#99ffed;fill-opacity:1;stroke-width:0.00933971" />
      <polygon
         points="122.499,24.83 36.181,186.105 218.621,186.105 218.621,24.83 "
         id="polygon844"
         inkscape:label="left_trapez"
         style="fill:#99ffed;fill-opacity:1"
         transform="matrix(0.00951324,0,0,0.00916935,-0.318722,-0.22767492)" />
      <polygon
         points="293.378,24.83 293.378,186.105 476.106,186.105 397.738,24.83 "
         id="polygon846"
         inkscape:label="right_trapez"
         style="fill:#99ffed;fill-opacity:1"
         transform="matrix(0.00951324,0,0,0.00916935,-0.318722,-0.22767492)" />
      <rect
         height="2.4297681"
         width="0.55896926"
         x="1.8371756"
         y="6.9388939e-18"
         id="rect848"
         inkscape:label="v_bar"
         style="fill:#99ffed;fill-opacity:1;stroke-width:0.00933971" />
      <polygon
         points="107.412,411.207 144.712,411.207 144.712,344.822 163.789,344.822 126.062,289.533 88.334,344.822 107.412,344.822 "
         id="polygon850"
         inkscape:label="up_arrow"
         style="fill:#99ffed;fill-opacity:1"
         transform="matrix(0.00951324,0,0,0.00916935,-0.318722,-0.22767492)" />
    </g>
  </g>
</svg>
